<svg width="16" height="17" viewBox="0 0 16 17" fill="none" xmlns="http://www.w3.org/2000/svg">
<path d="M1.83325 11.265V3.8345H0.833252V11.265H1.83325ZM15.1666 11.265V3.79143H14.1666V11.265H15.1666ZM13.3705 2.01476C12.6116 2.0412 11.6197 2.12014 10.8565 2.3486L11.1433 3.30659C11.7761 3.11716 12.6594 3.04014 13.4053 3.01416L13.3705 2.01476ZM10.8565 2.3486C10.1932 2.54719 9.44698 2.93508 8.86538 3.27172L9.36625 4.13722C9.93325 3.80909 10.5965 3.47029 11.1433 3.30659L10.8565 2.3486ZM2.62418 3.05162C3.26817 3.0912 3.99754 3.16816 4.53901 3.31104L4.79416 2.34414C4.15362 2.17512 3.34337 2.09393 2.68553 2.0535L2.62418 3.05162ZM4.53901 3.31104C5.18043 3.4803 5.96983 3.8506 6.62103 4.19495L7.08845 3.31093C6.42483 2.96 5.55169 2.54404 4.79416 2.34414L4.53901 3.31104ZM9.32018 14.3233C9.98085 13.9711 10.7991 13.5829 11.4609 13.4083L11.2057 12.4414C10.4255 12.6473 9.52172 13.0827 8.84978 13.4409L9.32018 14.3233ZM11.4609 13.4083C11.9961 13.2671 12.7154 13.1901 13.3546 13.1502L13.2921 12.1521C12.6387 12.193 11.8393 12.2742 11.2057 12.4414L11.4609 13.4083ZM7.15005 13.4409C6.4781 13.0827 5.57439 12.6473 4.79416 12.4414L4.53901 13.4083C5.20072 13.5829 6.01898 13.9711 6.67965 14.3233L7.15005 13.4409ZM4.79416 12.4414C4.16053 12.2742 3.36109 12.193 2.70771 12.1521L2.64528 13.1502C3.28445 13.1901 4.00369 13.2671 4.53901 13.4083L4.79416 12.4414ZM14.1666 11.265C14.1666 11.7222 13.7877 12.1211 13.2921 12.1521L13.3546 13.1502C14.3374 13.0887 15.1666 12.2891 15.1666 11.265H14.1666ZM15.1666 3.79143C15.1666 2.81589 14.3897 1.97926 13.3705 2.01476L13.4053 3.01416C13.8152 2.99988 14.1666 3.33704 14.1666 3.79143H15.1666ZM0.833252 11.265C0.833252 12.2891 1.66244 13.0887 2.64528 13.1502L2.70771 12.1521C2.21213 12.1211 1.83325 11.7222 1.83325 11.265H0.833252ZM8.84978 13.4409C8.32159 13.7225 7.67825 13.7225 7.15005 13.4409L6.67965 14.3233C7.50185 14.7616 8.49798 14.7616 9.32018 14.3233L8.84978 13.4409ZM8.86538 3.27172C8.31998 3.58736 7.64105 3.6031 7.08845 3.31093L6.62103 4.19495C7.48252 4.65048 8.52725 4.6228 9.36625 4.13722L8.86538 3.27172ZM1.83325 3.8345C1.83325 3.36971 2.20154 3.02564 2.62418 3.05162L2.68553 2.0535C1.6467 1.98965 0.833252 2.83506 0.833252 3.8345H1.83325Z" fill="#3084DA"/>
<path d="M8 4.4043V14.5016" stroke="#3084DA"/>
<path d="M3.33325 6.50195L5.99992 7.16862" stroke="#3084DA" stroke-linecap="round"/>
<path d="M12.6667 6.50195L10 7.16862" stroke="#3084DA" stroke-linecap="round"/>
<path d="M3.33325 9.16797L5.99992 9.83464" stroke="#3084DA" stroke-linecap="round"/>
<path d="M12.6667 9.16797L10 9.83464" stroke="#3084DA" stroke-linecap="round"/>
</svg>
